<svg width="20" height="20" viewBox="0 0 20 20" fill="none" xmlns="http://www.w3.org/2000/svg">
<path d="M6.42107 5.68211C7.4958 5.06578 8.81993 5.06579 9.89465 5.68211L9.8947 5.68214C10.3156 5.92356 10.6966 6.31243 11.2281 6.84038C11.7513 7.36009 12.1388 7.73486 12.3827 8.14529L12.3942 8.16485V8.16491C13.0147 9.23244 13.0147 10.5477 12.3942 11.6152L12.3941 11.6153C12.2502 11.8629 12.068 12.0789 11.8571 12.3031C11.5298 12.6513 10.9802 12.6699 10.6298 12.3447C10.2793 12.0195 10.2605 11.4737 10.5879 11.1255C10.7659 10.9363 10.8439 10.8321 10.8901 10.7525C11.2003 10.2188 11.2003 9.56125 10.8901 9.02753L10.8805 9.01135C10.7785 8.8434 10.5915 8.64781 10 8.06026C9.38945 7.4538 9.19932 7.27539 9.02627 7.17613C8.48891 6.86797 7.82683 6.86799 7.28946 7.17615L7.28944 7.17618C7.11639 7.27542 6.9263 7.45377 6.31572 8.06026L3.85952 10.5L3.85949 10.5C3.24892 11.1065 3.06937 11.2954 2.96945 11.4672L2.96943 11.4672C2.66403 11.9926 2.6593 12.6381 2.95515 13.1673L2.96945 13.1924L2.9695 13.1924C3.0694 13.3643 3.24891 13.5532 3.85946 14.1596L3.96914 14.2684C4.49375 14.788 4.67098 14.9506 4.83326 15.0437C5.37062 15.3519 6.03269 15.3519 6.57006 15.0437C6.65015 14.9978 6.75496 14.9203 6.94567 14.7435C7.29627 14.4184 7.8458 14.4372 8.17307 14.7854C8.50033 15.1337 8.48142 15.6795 8.13083 16.0046C7.90521 16.2138 7.68776 16.3947 7.43852 16.5377L7.43845 16.5377C6.36371 17.1541 5.0396 17.1541 3.96487 16.5377L3.96484 16.5377C3.54388 16.2963 3.16295 15.9074 2.63146 15.3796L2.63141 15.3795C2.09991 14.8516 1.70838 14.4731 1.46531 14.0549L1.46534 14.0549C0.844886 12.9873 0.844881 11.6721 1.46536 10.6046C1.70841 10.1865 2.0999 9.8081 2.63141 9.28014L5.28024 6.64895C5.71498 6.21753 6.05269 5.89337 6.42107 5.68211ZM12.5616 4.46226C13.6363 3.84591 14.9604 3.84593 16.0351 4.46223L16.0352 4.46228C16.4561 4.70371 16.8371 5.09253 17.3686 5.6205C17.9001 6.14837 18.2916 6.52681 18.5346 6.94503C19.1551 8.01256 19.1551 9.32784 18.5346 10.3954C18.2916 10.8135 17.9001 11.192 17.3686 11.7199L14.9124 14.1596C14.3809 14.6876 14 15.0764 13.5789 15.3179L13.5789 15.3179C12.5042 15.9342 11.1801 15.9342 10.1053 15.3179L10.1053 15.3178C9.68435 15.0764 9.30344 14.6876 8.7719 14.1596C8.24038 13.6317 7.84889 13.2533 7.6058 12.8351C6.98535 11.7676 6.98535 10.4523 7.6058 9.38478L7.60588 9.38466C7.74979 9.13713 7.93197 8.92112 8.14287 8.69686C8.47025 8.34872 9.01977 8.3301 9.37026 8.65529C9.72074 8.98048 9.73946 9.52632 9.41208 9.87446C9.23421 10.0636 9.15619 10.1678 9.10992 10.2473C8.79968 10.7811 8.79971 11.4388 9.10994 11.9725C9.20362 12.1337 9.36728 12.3098 9.89046 12.8308L10 12.9397C10.6105 13.5461 10.8007 13.7246 10.9737 13.8239L10.999 13.8381C11.5318 14.132 12.1816 14.1272 12.7105 13.8239L12.7105 13.8238C12.8836 13.7246 13.0738 13.5462 13.6843 12.9397L16.1405 10.5C16.7511 9.89346 16.9307 9.70467 17.0305 9.53287L17.0305 9.53277C17.3408 8.99901 17.3408 8.34138 17.0305 7.80762L17.0305 7.8075C16.9306 7.63569 16.7511 7.4469 16.1405 6.84038C15.53 6.23399 15.3399 6.05557 15.1668 5.9563L15.1415 5.94207C14.6087 5.64817 13.959 5.65293 13.43 5.95628L13.4299 5.95635C13.3499 6.00219 13.2452 6.07955 13.0543 6.2566C12.7037 6.58165 12.1542 6.56286 11.8269 6.21462C11.4997 5.86637 11.5186 5.32055 11.8692 4.99547C12.0947 4.78641 12.3121 4.60528 12.5616 4.46226Z" fill="black"/>
</svg>
