<svg width="20" height="20" viewBox="0 0 20 20" fill="none" xmlns="http://www.w3.org/2000/svg">
<path fill-rule="evenodd" clip-rule="evenodd" d="M10 14.3636C12.41 14.3636 14.3636 12.41 14.3636 10C14.3636 7.59003 12.41 5.63636 10 5.63636C7.59003 5.63636 5.63637 7.59003 5.63637 10C5.63637 12.41 7.59003 14.3636 10 14.3636ZM10 12.9091C11.6066 12.9091 12.9091 11.6066 12.9091 10C12.9091 8.39335 11.6066 7.09091 10 7.09091C8.39336 7.09091 7.09091 8.39335 7.09091 10C7.09091 11.6066 8.39336 12.9091 10 12.9091Z" fill="#F400B1"/>
<path d="M14.3636 4.90909C13.962 4.90909 13.6364 5.23471 13.6364 5.63636C13.6364 6.03802 13.962 6.36364 14.3636 6.36364C14.7653 6.36364 15.0909 6.03802 15.0909 5.63636C15.0909 5.23471 14.7653 4.90909 14.3636 4.90909Z" fill="#F400B1"/>
<path fill-rule="evenodd" clip-rule="evenodd" d="M2.47561 4.38259C2 5.31602 2 6.53796 2 8.98182V11.0182C2 13.462 2 14.684 2.47561 15.6174C2.89396 16.4385 3.56151 17.106 4.38259 17.5244C5.31602 18 6.53796 18 8.98182 18H11.0182C13.462 18 14.684 18 15.6174 17.5244C16.4385 17.106 17.106 16.4385 17.5244 15.6174C18 14.684 18 13.462 18 11.0182V8.98182C18 6.53796 18 5.31602 17.5244 4.38259C17.106 3.56151 16.4385 2.89396 15.6174 2.47561C14.684 2 13.462 2 11.0182 2H8.98182C6.53796 2 5.31602 2 4.38259 2.47561C3.56151 2.89396 2.89396 3.56151 2.47561 4.38259ZM11.0182 3.45455H8.98182C7.73588 3.45455 6.88891 3.45568 6.23424 3.50916C5.59654 3.56127 5.27043 3.6557 5.04294 3.77161C4.49556 4.05052 4.05052 4.49556 3.77161 5.04294C3.6557 5.27043 3.56127 5.59654 3.50916 6.23424C3.45568 6.88891 3.45455 7.73588 3.45455 8.98182V11.0182C3.45455 12.2641 3.45568 13.1111 3.50916 13.7657C3.56127 14.4035 3.6557 14.7296 3.77161 14.9571C4.05052 15.5044 4.49556 15.9495 5.04294 16.2284C5.27043 16.3443 5.59654 16.4388 6.23424 16.4908C6.88891 16.5443 7.73588 16.5455 8.98182 16.5455H11.0182C12.2641 16.5455 13.1111 16.5443 13.7657 16.4908C14.4035 16.4388 14.7296 16.3443 14.9571 16.2284C15.5044 15.9495 15.9495 15.5044 16.2284 14.9571C16.3443 14.7296 16.4388 14.4035 16.4908 13.7657C16.5443 13.1111 16.5455 12.2641 16.5455 11.0182V8.98182C16.5455 7.73588 16.5443 6.88891 16.4908 6.23424C16.4388 5.59654 16.3443 5.27043 16.2284 5.04294C15.9495 4.49556 15.5044 4.05052 14.9571 3.77161C14.7296 3.6557 14.4035 3.56127 13.7657 3.50916C13.1111 3.45568 12.2641 3.45455 11.0182 3.45455Z" fill="#F400B1"/>
</svg>
