<svg width="20" height="20" viewBox="0 0 20 20" fill="none" xmlns="http://www.w3.org/2000/svg">
<path d="M5.73904 12.3339C5.83521 11.5376 6.16177 11.0919 6.77716 10.6349C7.65771 10.0159 8.75758 10.366 8.75758 10.366V8.28903C9.02503 8.28214 9.29254 8.29802 9.55697 8.33635V11.0093C9.55697 11.0093 8.4574 10.6592 7.57691 11.2784C6.96183 11.7351 6.63459 12.1813 6.53876 12.9775C6.53575 13.4099 6.61689 13.975 6.99057 14.4637C6.89814 14.4163 6.80399 14.3624 6.70805 14.3018C5.88496 13.7491 5.73503 12.9199 5.73904 12.3339ZM14.0986 4.4486C13.4928 3.78485 13.2637 3.1147 13.181 2.64393H13.9429C13.9429 2.64393 13.791 3.8783 14.8982 5.09219L14.9136 5.10851C14.6152 4.92079 14.3415 4.69922 14.0986 4.4486ZM17.7692 6.33039V8.94952C17.7692 8.94952 16.7969 8.91149 16.0773 8.72841C15.0725 8.47235 14.4267 8.07968 14.4267 8.07968C14.4267 8.07968 13.9806 7.79968 13.9446 7.78017V13.1887C13.9446 13.4899 13.8621 14.2419 13.6107 14.8692C13.2824 15.6898 12.7759 16.2284 12.6827 16.3385C12.6827 16.3385 12.0667 17.0665 10.9798 17.5569C10.0001 17.9992 9.13992 17.988 8.88281 17.9992C8.88281 17.9992 7.39592 18.0581 6.05793 17.1885C5.76859 16.9968 5.49852 16.7798 5.25119 16.5401L5.25787 16.5449C6.59619 17.4144 8.08275 17.3555 8.08275 17.3555C8.34023 17.3443 9.20035 17.3555 10.1797 16.9133C11.2656 16.423 11.8827 15.6949 11.8827 15.6949C11.9749 15.5848 12.4837 15.0462 12.8106 14.2253C13.0614 13.5984 13.1445 12.8459 13.1445 12.5448V7.13691C13.1806 7.15673 13.6264 7.43673 13.6264 7.43673C13.6264 7.43673 14.2725 7.82977 15.2773 8.08546C15.9971 8.26854 16.9692 8.30663 16.9692 8.30663V6.25423C17.3018 6.32879 17.5853 6.34897 17.7692 6.33039Z" fill="#EE1D52"/>
<path d="M16.9698 6.25423V8.30595C16.9698 8.30595 15.9977 8.26786 15.2778 8.08485C14.2731 7.82879 13.6269 7.43611 13.6269 7.43611C13.6269 7.43611 13.1811 7.15611 13.1451 7.13623V12.5455C13.1451 12.8466 13.0626 13.599 12.8112 14.2259C12.4829 15.0469 11.9764 15.5854 11.8832 15.6955C11.8832 15.6955 11.2669 16.4236 10.1803 16.9139C9.20091 17.3562 8.34078 17.345 8.08331 17.3562C8.08331 17.3562 6.59675 17.4151 5.25842 16.5456L5.25174 16.5408C5.11045 16.4039 4.97744 16.2595 4.85339 16.1081C4.42631 15.5874 4.16453 14.9716 4.09874 14.7959V14.7937C3.9929 14.4884 3.77051 13.7552 3.8009 13.045C3.85466 11.7921 4.29542 11.0231 4.41196 10.8304C4.72059 10.305 5.12201 9.83493 5.59835 9.44115C6.01868 9.10128 6.49513 8.83088 7.00811 8.64103C7.56269 8.41814 8.15654 8.29863 8.75783 8.28903V10.366C8.75783 10.366 7.65789 10.0172 6.77771 10.6349C6.16232 11.0919 5.83576 11.5376 5.73959 12.3339C5.73558 12.9199 5.88551 13.7491 6.70793 14.3021C6.80386 14.3629 6.89802 14.4169 6.99045 14.464C7.13408 14.6508 7.30897 14.8136 7.50799 14.9457C8.31137 15.4542 8.98454 15.4898 9.8454 15.1595C10.4194 14.9387 10.8514 14.441 11.0518 13.8896C11.1777 13.5453 11.176 13.1986 11.176 12.8402V2.64393H13.1795C13.2623 3.1147 13.4914 3.78485 14.0971 4.4486C14.34 4.69922 14.6138 4.92079 14.9122 5.10851C15.0003 5.19972 15.4511 5.65064 16.0298 5.92747C16.329 6.07057 16.6444 6.18021 16.9698 6.25423Z" fill="black"/>
<path d="M3.30108 14.158V14.1596L3.35079 14.2944C3.34508 14.2787 3.3266 14.231 3.30108 14.158Z" fill="#69C9D0"/>
<path d="M7.00787 8.64097C6.49488 8.83088 6.01844 9.10127 5.5981 9.44109C5.12162 9.8358 4.72029 10.3069 4.41205 10.8332C4.29551 11.0253 3.85475 11.7949 3.80099 13.0479C3.7706 13.758 3.99299 14.4912 4.09884 14.7965V14.7987C4.16562 14.9729 4.4264 15.5886 4.85348 16.1109C4.97754 16.2623 5.11054 16.4068 5.25184 16.5436C4.79912 16.2435 4.39536 15.8807 4.05376 15.467C3.63036 14.9508 3.36924 14.3414 3.30112 14.1616C3.30104 14.1603 3.30104 14.159 3.30112 14.1578V14.1555C3.19494 13.8505 2.97188 13.117 3.00294 12.4059C3.0567 11.153 3.49747 10.3839 3.614 10.1912C3.92215 9.66478 4.32349 9.19371 4.80005 8.79912C5.2203 8.45912 5.69676 8.18872 6.20983 7.999C6.52985 7.87174 6.86325 7.77789 7.20424 7.719C7.71808 7.63303 8.24294 7.62552 8.75925 7.69691V8.28897C8.15741 8.29838 7.56295 8.41789 7.00787 8.64097Z" fill="#69C9D0"/>
<path d="M13.1808 2.64391H11.1773V12.8405C11.1773 13.1989 11.1773 13.5446 11.0531 13.8899C10.8508 14.441 10.4203 14.9386 9.84663 15.1595C8.98553 15.491 8.31236 15.4542 7.50929 14.9457C7.3099 14.8141 7.13458 14.6519 6.99039 14.4656C7.67458 14.8154 8.28695 14.8093 9.04559 14.5175C9.61894 14.2966 10.05 13.799 10.2517 13.2476C10.3779 12.9032 10.3762 12.5567 10.3762 12.1985V2H13.1427C13.1427 2 13.1117 2.25346 13.1808 2.64391ZM16.9693 5.68679V6.25421C16.6446 6.18007 16.3298 6.07043 16.0311 5.92746C15.4524 5.65063 15.0016 5.1997 14.9135 5.10849C15.0157 5.17285 15.1219 5.23141 15.2313 5.28386C15.9349 5.62054 16.6277 5.72103 16.9693 5.68679Z" fill="#69C9D0"/>
</svg>
