<svg width="20" height="20" viewBox="0 0 20 20" fill="none" xmlns="http://www.w3.org/2000/svg">
<path d="M10 2C8.58765 2.00033 7.20054 2.37448 5.97959 3.08443C4.75863 3.79438 3.74734 4.81484 3.04843 6.04216C2.34952 7.26947 1.9879 8.6599 2.00031 10.0722C2.01271 11.4845 2.3987 12.8684 3.11906 14.0832L2.32967 16.8462C2.29701 16.9606 2.29551 17.0815 2.32534 17.1966C2.35516 17.3117 2.41522 17.4167 2.49929 17.5008C2.58336 17.5849 2.68838 17.6449 2.80347 17.6747C2.91856 17.7046 3.03953 17.7031 3.15385 17.6704L5.91687 16.881V16.881C6.97569 17.5093 8.16523 17.8847 9.39287 17.9781C10.6205 18.0714 11.8531 17.8802 12.9948 17.4192C14.1364 16.9583 15.1563 16.2401 15.975 15.3205C16.7936 14.401 17.3891 13.3049 17.7148 12.1176C18.0406 10.9302 18.088 9.68377 17.8532 8.47516C17.6185 7.26655 17.108 6.12842 16.3614 5.14939C15.6149 4.17035 14.6525 3.37681 13.5491 2.83056C12.4457 2.28431 11.2312 2.00008 10 2ZM12.0094 14.6667C11.1324 14.668 10.2637 14.4961 9.45312 14.1611C8.64257 13.826 7.9061 13.3343 7.28592 12.7141C6.66573 12.0939 6.17402 11.3574 5.83895 10.5469C5.50388 9.73633 5.33205 8.86763 5.33329 7.99055C5.33528 7.37319 5.58206 6.78183 6.01948 6.34617C6.45691 5.91052 7.04927 5.66616 7.66663 5.66668C7.76789 5.66668 7.86735 5.69345 7.95493 5.74427C8.04251 5.7951 8.11509 5.86817 8.16533 5.95609L9.13961 7.66104C9.19836 7.76386 9.22866 7.88048 9.2274 7.99889C9.22614 8.11731 9.19337 8.23326 9.13245 8.33481L8.35002 9.63885C8.75255 10.5322 9.46783 11.2475 10.3611 11.65L11.6652 10.8676C11.7667 10.8066 11.8827 10.7739 12.0011 10.7726C12.1195 10.7714 12.2361 10.8017 12.339 10.8604L14.0439 11.8347C14.1318 11.8849 14.2049 11.9575 14.2557 12.0451C14.3065 12.1327 14.3333 12.2321 14.3333 12.3334C14.3315 12.95 14.0864 13.5411 13.6513 13.978C13.2161 14.4149 12.6261 14.6624 12.0094 14.6667Z" fill="#42BE50"/>
</svg>
