<svg width="20" height="20" viewBox="0 0 20 20" fill="none" xmlns="http://www.w3.org/2000/svg">
<path fill-rule="evenodd" clip-rule="evenodd" d="M8.18959 12.9014V7.69042C9.98258 8.56089 11.3712 9.40178 13.0136 10.3084C11.659 11.0835 9.98258 11.9531 8.18959 12.9014ZM18.1819 5.09876C17.8726 4.67834 17.3455 4.35108 16.7843 4.24274C15.1347 3.91955 4.84389 3.91863 3.19524 4.24274C2.7452 4.32978 2.34445 4.54018 2.0002 4.86707C0.549674 6.25612 1.0042 13.7051 1.35383 14.9118C1.50086 15.4341 1.69092 15.8107 1.93028 16.058C2.23868 16.3849 2.66092 16.61 3.14592 16.7109C4.50411 17.0007 11.5012 17.1628 16.7556 16.7544C17.2397 16.6674 17.6682 16.435 18.0062 16.0943C19.3473 14.7108 19.2559 6.84341 18.1819 5.09876Z" fill="#F60000"/>
</svg>
